<?xml version="1.0" encoding="iso-8859-1"?>
<!-- Generator: Adobe Illustrator 19.0.0, SVG Export Plug-In . SVG Version: 6.00 Build 0)  -->
<svg version="1.1" xmlns="http://www.w3.org/2000/svg" xmlns:xlink="http://www.w3.org/1999/xlink" x="0px" y="0px"
	 viewBox="0 0 966.482 321.464" style="enable-background:new 0 0 966.482 321.464;" xml:space="preserve">
<symbol  id="META_Logotipo" viewBox="-453.861 -160.732 907.722 321.464">
	<g id="Logotipo_2_">
		<polygon id="Logo_2_" style="fill:#F4A950;" points="-336.368,15.483 -453.861,132.976 -453.861,-160.732 -345.458,-160.732 
			-345.458,-61.861 -389.249,-61.861 -389.249,-116.941 -410.071,-116.941 -410.071,-47.314 -388.351,-47.314 -388.351,-3.523 
			-410.071,-3.523 -410.071,27.257 -296.654,-86.16 -241.425,-30.932 -272.389,0.033 -296.654,-24.232 -305.404,-15.482 
			-234.909,55.013 -234.909,-160.732 -191.119,-160.732 -191.119,160.732 		"/>
		<g id="Tipo_x2F_Letras_2_">
			<g id="Letras_Empresa_Junior_2_">
				<polygon id="XMLID_674_" style="fill:#F4A950;" points="-96.961,-69.937 -118.831,-69.937 -118.831,-60.509 -99.428,-60.509 
					-99.428,-53.549 -118.831,-53.549 -118.831,-43.517 -96.961,-43.517 -96.961,-36.721 -126.505,-36.721 -126.505,-76.843 
					-96.961,-76.843 				"/>
				<polygon id="XMLID_673_" style="fill:#F4A950;" points="-65.499,-59.907 -85.177,-36.776 -85.67,-36.776 -85.67,-76.843 
					-77.997,-76.843 -77.997,-56.563 -65.499,-71.636 -52.948,-56.563 -52.948,-76.843 -45.274,-76.843 -45.274,-36.776 
					-45.768,-36.776 				"/>
				<path id="XMLID_670_" style="fill:#F4A950;" d="M-3.837-40.887c-1.279,1.279-2.787,2.293-4.522,3.042
					c-1.736,0.749-3.59,1.124-5.563,1.124h-17.869v-40.122h7.673v11.948h8.934c2.557,0,4.814,0.357,6.769,1.069
					c1.954,0.712,3.571,1.699,4.851,2.96c1.278,1.261,2.247,2.732,2.905,4.413c0.657,1.679,0.986,3.508,0.986,5.48
					c0,1.974-0.375,3.828-1.124,5.564C-1.544-43.674-2.558-42.166-3.837-40.887z M-7.729-53.603
					c-0.256-0.841-0.649-1.589-1.178-2.247c-0.53-0.658-1.215-1.178-2.055-1.563c-0.841-0.383-1.828-0.575-2.96-0.575h-10.195v14.47
					h9.373c1.206,0,2.266-0.22,3.179-0.658c0.913-0.439,1.68-1.006,2.302-1.699c0.621-0.695,1.096-1.489,1.425-2.384
					c0.329-0.896,0.493-1.8,0.493-2.714C-7.345-51.886-7.474-52.763-7.729-53.603z"/>
				<path id="XMLID_655_" style="fill:#F4A950;" d="M17.703-64.072h7.594c1.53-2.192,3.061-4.349,4.59-6.467
					c1.53-2.12,3.095-4.221,4.698-6.304h9.153c-3.289,4.53-6.619,9.025-9.99,13.483c2.526,0.987,4.548,2.613,6.067,4.879
					c1.519,2.265,2.279,4.914,2.279,7.947c0,2.009-0.339,3.864-1.016,5.563c-0.678,1.699-1.621,3.16-2.828,4.384
					c-1.208,1.224-2.663,2.174-4.365,2.851c-1.702,0.676-3.578,1.014-5.629,1.014H10.029v-40.122h7.674V-64.072z M17.703-43.517
					h10.544c1.348,0,2.422-0.257,3.223-0.768c0.802-0.512,1.421-1.133,1.857-1.864c0.437-0.731,0.729-1.498,0.875-2.302
					c0.146-0.805,0.218-1.499,0.218-2.083c0-1.133-0.191-2.119-0.574-2.96c-0.382-0.841-0.866-1.545-1.448-2.11
					c-0.583-0.567-1.247-0.987-1.995-1.26c-0.746-0.274-1.465-0.411-2.157-0.411H17.703V-43.517z"/>
				<polygon id="XMLID_654_" style="fill:#F4A950;" points="83.696,-69.937 61.826,-69.937 61.826,-60.509 81.229,-60.509 
					81.229,-53.549 61.826,-53.549 61.826,-43.517 83.696,-43.517 83.696,-36.721 54.152,-36.721 54.152,-76.843 83.696,-76.843 
									"/>
				<path id="XMLID_653_" style="fill:#F4A950;" d="M127.106-65.332c0,1.789-0.266,3.316-0.795,4.577
					c-0.53,1.26-1.225,2.32-2.083,3.18c-0.859,0.858-1.836,1.562-2.933,2.109c-1.096,0.548-2.202,0.987-3.316,1.316
					c-1.115,0.329-2.192,0.584-3.233,0.767c-1.041,0.183-1.946,0.366-2.714,0.549c-1.023,0.255-2.083,0.511-3.179,0.767
					c-1.097,0.256-2.102,0.566-3.015,0.931c-0.914,0.366-1.663,0.822-2.247,1.37c-0.585,0.549-0.877,1.225-0.877,2.028
					c0,0.804,0.247,1.488,0.74,2.056c0.493,0.566,1.114,1.031,1.864,1.397c0.748,0.366,1.543,0.63,2.384,0.795
					c0.84,0.164,1.589,0.247,2.247,0.247c1.936,0,3.782-0.348,5.536-1.041c1.755-0.695,3.581-1.699,5.481-3.014l4.275,6.029
					c-1.243,0.877-2.403,1.635-3.481,2.275c-1.078,0.638-2.184,1.168-3.315,1.589c-1.133,0.419-2.357,0.74-3.673,0.959
					c-1.315,0.219-2.814,0.329-4.494,0.329c-1.681,0-3.425-0.183-5.235-0.548c-1.808-0.366-3.453-0.997-4.933-1.891
					c-1.479-0.896-2.695-2.119-3.644-3.672c-0.951-1.554-1.426-3.5-1.426-5.838c0-1.608,0.266-3.006,0.796-4.193
					c0.529-1.187,1.233-2.211,2.109-3.069c0.877-0.859,1.864-1.572,2.961-2.138c1.096-0.567,2.21-1.023,3.343-1.37
					c1.133-0.348,2.228-0.621,3.289-0.822c1.059-0.201,1.992-0.375,2.795-0.52c1.206-0.219,2.366-0.458,3.481-0.712
					c1.115-0.257,2.083-0.567,2.905-0.932c0.822-0.366,1.48-0.831,1.974-1.397c0.492-0.568,0.739-1.252,0.739-2.056
					c0-0.621-0.164-1.251-0.493-1.891c-0.328-0.64-0.821-1.206-1.479-1.699c-0.658-0.493-1.462-0.896-2.412-1.206
					c-0.951-0.311-2.047-0.466-3.289-0.466c-2.339,0-4.577,0.501-6.715,1.507c-2.137,1.005-4.212,2.201-6.221,3.59l-4.165-6.138
					c1.242-0.878,2.448-1.681,3.617-2.412c1.169-0.732,2.412-1.362,3.727-1.891c1.316-0.53,2.768-0.95,4.358-1.26
					c1.589-0.31,3.425-0.466,5.508-0.466c2.266,0,4.331,0.256,6.194,0.767c1.864,0.511,3.472,1.269,4.823,2.275
					c1.351,1.005,2.393,2.274,3.125,3.809C126.74-69.224,127.106-67.415,127.106-65.332z"/>
				<path id="XMLID_650_" style="fill:#F4A950;" d="M154.074-36.776h-0.768l-20.499-40.067h8.331l3.07,6.304h18.91l3.124-6.304
					h8.332L154.074-36.776z M147.935-63.852l5.755,12.113l5.7-12.113H147.935z"/>
				<path id="XMLID_649_" style="fill:#F4A950;" d="M228.04-73.308c1.297,1.37,2.303,3.023,3.015,4.96s1.069,4.074,1.069,6.414
					v25.158h-7.674v-25.158c0-0.768-0.082-1.645-0.247-2.632c-0.164-0.986-0.502-1.937-1.014-2.85
					c-0.512-0.914-1.234-1.681-2.165-2.303c-0.932-0.621-2.185-0.931-3.755-0.931c-0.914,0-1.708,0.137-2.384,0.411
					c-0.677,0.273-1.27,0.621-1.781,1.041c-0.512,0.419-0.95,0.895-1.316,1.425c-0.366,0.529-0.658,1.05-0.877,1.563l-6.961-3.124
					c1.169-2.595,2.895-4.623,5.179-6.085c2.284-1.461,4.997-2.192,8.14-2.192c2.228,0,4.257,0.375,6.085,1.124
					C225.181-75.738,226.743-74.678,228.04-73.308z"/>
				<polygon id="XMLID_648_" style="fill:#F4A950;" points="258.379,-34.803 263.805,-34.803 271.149,-29.266 264.791,-26.526 				
					"/>
				<path id="XMLID_647_" style="fill:#F4A950;" d="M262.599-77.555c2.631,0,5.006,0.406,7.125,1.215
					c2.118,0.81,3.928,1.953,5.427,3.426c1.497,1.472,2.648,3.252,3.453,5.335c0.803,2.083,1.206,4.403,1.206,6.961v23.898h-7.674
					v-23.898c0-2.009-0.329-3.672-0.987-4.988c-0.658-1.315-1.471-2.356-2.438-3.124c-0.969-0.767-2.01-1.297-3.125-1.589
					c-1.115-0.293-2.109-0.439-2.986-0.439c-0.878,0-1.874,0.146-2.987,0.439c-1.116,0.292-2.157,0.822-3.124,1.589
					c-0.969,0.768-1.782,1.809-2.439,3.124c-0.658,1.316-0.987,2.978-0.987,4.988v23.898h-7.674v-23.898
					c0-2.557,0.411-4.878,1.234-6.961s1.982-3.862,3.481-5.335c1.498-1.473,3.306-2.616,5.426-3.426
					C257.647-77.149,260.004-77.555,262.599-77.555z"/>
				<polygon id="XMLID_631_" style="fill:#F4A950;" points="320.424,-61.003 294.059,-36.776 293.237,-36.776 293.237,-76.843 
					300.911,-76.843 300.911,-53 327.277,-76.843 328.097,-76.843 328.097,-36.776 320.424,-36.776 				"/>
				<polygon id="XMLID_630_" style="fill:#F4A950;" points="350.296,-76.843 350.296,-36.776 342.623,-36.776 342.623,-76.843 				
					"/>
				<path id="XMLID_627_" style="fill:#F4A950;" d="M404.395-56.782c0,2.85-0.549,5.544-1.645,8.084
					c-1.096,2.539-2.585,4.75-4.467,6.633c-1.883,1.882-4.084,3.371-6.605,4.467c-2.522,1.097-5.227,1.645-8.113,1.645
					c-2.85,0-5.536-0.548-8.056-1.645c-2.522-1.096-4.723-2.585-6.605-4.467c-1.883-1.883-3.371-4.093-4.468-6.633
					c-1.096-2.54-1.644-5.235-1.644-8.084c0-2.887,0.548-5.591,1.644-8.113c1.097-2.521,2.585-4.722,4.468-6.604
					c1.882-1.883,4.083-3.372,6.605-4.468c2.521-1.096,5.207-1.644,8.056-1.644c2.886,0,5.591,0.548,8.113,1.644
					c2.521,1.096,4.722,2.585,6.605,4.468c1.882,1.882,3.371,4.083,4.467,6.604C403.846-62.373,404.395-59.669,404.395-56.782z
					 M395.682-61.989c-0.694-1.644-1.632-3.096-2.817-4.357c-1.185-1.261-2.571-2.267-4.158-3.015
					c-1.586-0.749-3.292-1.124-5.114-1.124c-1.823,0-3.528,0.375-5.115,1.124c-1.586,0.748-2.971,1.754-4.157,3.015
					c-1.186,1.26-2.124,2.713-2.817,4.357c-0.693,1.645-1.039,3.38-1.039,5.208c0,1.789,0.347,3.516,1.039,5.179
					c0.693,1.663,1.631,3.115,2.817,4.358c1.185,1.242,2.57,2.238,4.157,2.987c1.586,0.748,3.292,1.124,5.115,1.124
					c1.822,0,3.527-0.375,5.114-1.124c1.586-0.749,2.973-1.746,4.158-2.987c1.185-1.242,2.123-2.695,2.817-4.358
					c0.693-1.663,1.039-3.39,1.039-5.179C396.721-58.61,396.374-60.345,395.682-61.989z"/>
				<path id="XMLID_624_" style="fill:#F4A950;" d="M445.635-58.481c1.519,2.265,2.279,4.914,2.279,7.947
					c0,2.009-0.339,3.864-1.016,5.563c-0.678,1.699-1.621,3.16-2.828,4.384c-1.208,1.224-2.663,2.174-4.365,2.851
					c-1.702,0.676-3.578,1.014-5.629,1.014h-18.228v-40.122h7.674v12.771h7.594c1.53-2.192,3.061-4.349,4.59-6.467
					c1.53-2.12,3.095-4.221,4.698-6.304h9.153c-3.289,4.53-6.619,9.025-9.99,13.483C442.094-62.373,444.116-60.747,445.635-58.481z
					 M439.666-53.493c-0.382-0.841-0.866-1.545-1.448-2.11c-0.583-0.567-1.247-0.987-1.995-1.26
					c-0.746-0.274-1.465-0.411-2.157-0.411h-10.544v13.758h10.544c1.347,0,2.422-0.257,3.223-0.768
					c0.802-0.512,1.421-1.133,1.857-1.864c0.437-0.731,0.729-1.498,0.875-2.302c0.146-0.805,0.218-1.499,0.218-2.083
					C440.24-51.667,440.049-52.653,439.666-53.493z"/>
				<path id="XMLID_605_" style="fill:#F4A950;" d="M-96.871-107.538c-3.686,3.362-8.392,5.042-14.12,5.042h-15.817v-40.122h15.817
					c2.845,0,5.463,0.42,7.852,1.26c2.389,0.84,4.479,2.083,6.268,3.728c1.97,1.79,3.456,3.955,4.459,6.495
					c1.004,2.539,1.506,5.399,1.506,8.579c0,3.142-0.502,5.983-1.506,8.523C-93.416-111.493-94.901-109.328-96.871-107.538z
					 M-99.731-129.353c-0.767-1.718-1.745-3.061-2.932-4.029c-1.188-0.968-2.513-1.617-3.974-1.946
					c-1.462-0.329-2.905-0.492-4.33-0.492h-8.167v26.418h8.167c1.388,0,2.813-0.164,4.275-0.493
					c1.461-0.329,2.795-0.968,4.001-1.918c1.206-0.95,2.193-2.294,2.96-4.029c0.767-1.736,1.151-3.992,1.151-6.769
					S-98.963-127.636-99.731-129.353z"/>
				<polygon id="XMLID_604_" style="fill:#F4A950;" points="-85.424,-142.617 -55.881,-142.617 -55.881,-135.711 -77.751,-135.711 
					-77.751,-126.283 -58.348,-126.283 -58.348,-119.323 -77.751,-119.323 -77.751,-109.292 -55.881,-109.292 -55.881,-102.495 
					-85.424,-102.495 				"/>
				<path id="XMLID_601_" style="fill:#F4A950;" d="M-12.8-102.55l-20.499-40.067h8.331l3.069,6.304h18.91l3.124-6.304h8.332
					l-20.5,40.067H-12.8z M-18.172-129.626l5.755,12.113l5.7-12.113H-18.172z"/>
				<path id="XMLID_598_" style="fill:#F4A950;" d="M43.116-107.538c-3.686,3.362-8.392,5.042-14.12,5.042H13.179v-40.122h15.817
					c2.846,0,5.463,0.42,7.853,1.26c2.389,0.84,4.479,2.083,6.267,3.728c1.97,1.79,3.456,3.955,4.46,6.495
					c1.004,2.539,1.505,5.399,1.505,8.579c0,3.142-0.501,5.983-1.505,8.523C46.572-111.493,45.086-109.328,43.116-107.538z
					 M40.257-129.353c-0.768-1.718-1.746-3.061-2.933-4.029c-1.187-0.968-2.513-1.617-3.973-1.946
					c-1.462-0.329-2.905-0.492-4.33-0.492h-8.167v26.418h8.167c1.388,0,2.813-0.164,4.274-0.493
					c1.461-0.329,2.796-0.968,4.002-1.918c1.206-0.95,2.192-2.294,2.96-4.029c0.767-1.736,1.151-3.992,1.151-6.769
					S41.024-127.636,40.257-129.353z"/>
				<polygon id="XMLID_597_" style="fill:#F4A950;" points="76.432,-125.681 56.754,-102.55 56.26,-102.55 56.26,-142.617 
					63.934,-142.617 63.934,-122.337 76.432,-137.41 88.984,-122.337 88.984,-142.617 96.657,-142.617 96.657,-102.55 
					96.164,-102.55 				"/>
				<polygon id="XMLID_596_" style="fill:#F4A950;" points="106.578,-142.617 114.251,-142.617 114.251,-102.55 106.578,-102.55 
									"/>
				<polygon id="XMLID_595_" style="fill:#F4A950;" points="151.305,-126.777 124.94,-102.55 124.117,-102.55 124.117,-142.617 
					131.791,-142.617 131.791,-118.774 158.157,-142.617 158.978,-142.617 158.978,-102.55 151.305,-102.55 				"/>
				<polygon id="XMLID_594_" style="fill:#F4A950;" points="168.843,-142.617 176.516,-142.617 176.516,-102.55 168.843,-102.55 
									"/>
				<path id="XMLID_593_" style="fill:#F4A950;" d="M214.364-123.35c-0.859,0.858-1.836,1.562-2.933,2.109
					c-1.096,0.548-2.202,0.987-3.316,1.316c-1.115,0.329-2.192,0.584-3.233,0.767s-1.946,0.366-2.714,0.549
					c-1.024,0.255-2.083,0.511-3.179,0.767c-1.097,0.256-2.102,0.566-3.015,0.931c-0.914,0.366-1.663,0.822-2.247,1.37
					c-0.585,0.549-0.877,1.225-0.877,2.028c0,0.804,0.247,1.488,0.74,2.056c0.493,0.566,1.114,1.031,1.864,1.397
					c0.748,0.366,1.543,0.63,2.384,0.795c0.84,0.164,1.589,0.247,2.247,0.247c1.936,0,3.782-0.348,5.536-1.041
					c1.755-0.695,3.581-1.699,5.481-3.014l4.275,6.029c-1.242,0.877-2.403,1.635-3.481,2.275c-1.078,0.638-2.184,1.168-3.315,1.589
					c-1.134,0.419-2.357,0.74-3.673,0.959c-1.315,0.219-2.814,0.329-4.494,0.329c-1.681,0-3.425-0.183-5.235-0.548
					c-1.808-0.366-3.453-0.997-4.933-1.892c-1.479-0.896-2.695-2.119-3.644-3.672c-0.951-1.554-1.426-3.5-1.426-5.838
					c0-1.608,0.266-3.006,0.796-4.193c0.529-1.187,1.233-2.211,2.109-3.069c0.877-0.859,1.864-1.572,2.961-2.138
					c1.096-0.567,2.21-1.024,3.343-1.37c1.133-0.348,2.228-0.621,3.289-0.822c1.059-0.201,1.992-0.375,2.795-0.52
					c1.206-0.219,2.366-0.458,3.481-0.712c1.115-0.257,2.083-0.567,2.905-0.932c0.822-0.366,1.48-0.831,1.974-1.397
					c0.492-0.568,0.739-1.252,0.739-2.056c0-0.621-0.164-1.251-0.493-1.891c-0.328-0.64-0.821-1.206-1.479-1.699
					c-0.658-0.493-1.462-0.896-2.412-1.206c-0.951-0.311-2.047-0.466-3.289-0.466c-2.339,0-4.577,0.501-6.715,1.507
					c-2.137,1.005-4.212,2.201-6.221,3.59l-4.165-6.138c1.242-0.878,2.448-1.681,3.618-2.412c1.169-0.732,2.412-1.362,3.727-1.891
					c1.316-0.53,2.768-0.95,4.358-1.26s3.425-0.466,5.508-0.466c2.266,0,4.331,0.256,6.194,0.767
					c1.864,0.511,3.472,1.269,4.823,2.275c1.352,1.005,2.393,2.274,3.125,3.809c0.73,1.535,1.096,3.344,1.096,5.427
					c0,1.789-0.266,3.316-0.795,4.577C215.917-125.27,215.222-124.209,214.364-123.35z"/>
				<polygon id="XMLID_592_" style="fill:#F4A950;" points="218.447,-109.292 229.958,-109.292 229.958,-142.617 237.632,-142.617 
					237.632,-109.292 249.087,-109.292 249.087,-102.495 218.447,-102.495 				"/>
				<path id="XMLID_589_" style="fill:#F4A950;" d="M284.133-124.255c1.519,2.265,2.279,4.914,2.279,7.947
					c0,2.009-0.339,3.864-1.016,5.564c-0.678,1.699-1.621,3.16-2.828,4.384c-1.208,1.224-2.663,2.174-4.365,2.851
					c-1.702,0.676-3.578,1.014-5.629,1.014h-18.228v-40.122h7.674v12.771h7.594c1.53-2.192,3.061-4.349,4.59-6.467
					c1.53-2.12,3.095-4.221,4.698-6.304h9.153c-3.289,4.53-6.619,9.025-9.99,13.483
					C280.592-128.147,282.614-126.521,284.133-124.255z M274.722-122.638c-0.746-0.274-1.465-0.411-2.157-0.411h-10.544v13.758
					h10.544c1.348,0,2.422-0.257,3.223-0.768c0.802-0.512,1.421-1.133,1.857-1.864c0.437-0.731,0.729-1.498,0.875-2.302
					c0.146-0.805,0.218-1.499,0.218-2.083c0-1.133-0.191-2.119-0.574-2.96c-0.382-0.841-0.866-1.545-1.448-2.11
					C276.134-121.944,275.469-122.365,274.722-122.638z"/>
				<path id="XMLID_586_" style="fill:#F4A950;" d="M309.652-102.55l-20.499-40.067h8.331l3.07,6.304h18.91l3.124-6.304h8.332
					L310.42-102.55H309.652z M304.281-129.626l5.755,12.113l5.7-12.113H304.281z"/>
				<path id="XMLID_585_" style="fill:#F4A950;" d="M342.814-113.074c1.169,1.242,2.548,2.237,4.138,2.987
					c1.589,0.748,3.297,1.124,5.126,1.124c1.131,0,2.228-0.164,3.289-0.493c1.059-0.329,2.064-0.787,3.014-1.37
					c0.95-0.586,1.817-1.26,2.604-2.028c0.785-0.767,1.47-1.589,2.055-2.466l7.181,2.905c-0.877,1.57-1.955,3.005-3.234,4.302
					c-1.279,1.297-2.695,2.412-4.248,3.344c-1.554,0.931-3.234,1.653-5.042,2.165c-1.809,0.511-3.682,0.767-5.618,0.767
					c-2.851,0-5.537-0.548-8.057-1.644c-2.522-1.097-4.723-2.586-6.605-4.468c-1.883-1.883-3.371-4.083-4.468-6.605
					c-1.096-2.521-1.644-5.207-1.644-8.057c0-2.704,0.484-5.243,1.453-7.618c0.967-2.376,2.283-4.485,3.946-6.33
					c1.662-1.846,3.625-3.363,5.891-4.55c2.266-1.188,4.714-1.908,7.345-2.165l-1.644-4.22l0.767-1.261
					c0.256,0.11,0.529,0.22,0.822,0.329c0.255,0.074,0.557,0.147,0.905,0.219c0.347,0.074,0.72,0.129,1.124,0.164
					c0.365,0,0.758-0.072,1.178-0.219c0.419-0.146,0.63-0.475,0.63-0.987c0-0.511-0.173-0.895-0.52-1.15
					c-0.348-0.256-0.74-0.383-1.179-0.383c-0.621-0.037-1.133,0-1.535,0.109c-0.402,0.11-0.731,0.219-0.986,0.329
					c-0.293,0.147-0.512,0.293-0.658,0.439l-1.37-2.686c0.329-0.292,0.712-0.548,1.15-0.767c0.402-0.183,0.878-0.357,1.426-0.521
					s1.206-0.247,1.973-0.247c0.256,0,0.676,0.028,1.261,0.082c0.584,0.055,1.187,0.229,1.808,0.521
					c0.621,0.292,1.178,0.739,1.672,1.343c0.493,0.602,0.776,1.471,0.85,2.604c0.146,2.228-0.787,3.691-2.796,4.384
					c-0.511,0.183-0.978,0.266-1.397,0.247c-0.421-0.018-0.686-0.046-0.795-0.082l0.767,1.699c1.79,0.109,3.526,0.448,5.207,1.014
					c1.68,0.567,3.243,1.306,4.687,2.22c1.444,0.913,2.75,1.991,3.919,3.233c1.169,1.243,2.174,2.613,3.015,4.111l-7.181,2.905
					c-0.585-0.877-1.27-1.708-2.055-2.494c-0.787-0.786-1.654-1.471-2.604-2.055c-0.95-0.586-1.955-1.041-3.014-1.37
					c-1.06-0.329-2.157-0.493-3.289-0.493c-1.828,0-3.536,0.375-5.126,1.124c-1.589,0.748-2.969,1.745-4.138,2.987
					c-1.17,1.241-2.102,2.685-2.796,4.33s-1.041,3.38-1.041,5.207c0,1.79,0.347,3.516,1.041,5.18
					C340.712-115.769,341.644-114.316,342.814-113.074z"/>
				<path id="XMLID_582_" style="fill:#F4A950;" d="M390.883-102.55l-20.499-40.067h8.331l3.07,6.304h18.91l3.124-6.304h8.332
					l-20.499,40.067H390.883z M385.512-129.626l5.755,12.113l5.7-12.113H385.512z"/>
				<path id="XMLID_581_" style="fill:#F4A950;" d="M397.022-94.876c-0.219-0.293-0.493-0.576-0.822-0.85
					c-0.329-0.273-0.712-0.393-1.151-0.356c-0.512,0.036-0.914,0.137-1.206,0.301c-0.292,0.164-0.639,0.447-1.041,0.849
					c-0.548,0.511-1.251,1.05-2.11,1.617c-0.858,0.567-2.037,0.831-3.535,0.795c-1.023-0.037-1.927-0.283-2.713-0.74
					c-0.786-0.457-1.461-1.023-2.028-1.698c-0.567-0.677-1.024-1.398-1.37-2.165c-0.348-0.768-0.594-1.445-0.739-2.028l4.494-1.261
					c0.255,0.621,0.484,1.124,0.685,1.508c0.2,0.383,0.447,0.73,0.74,1.041c0.292,0.31,0.639,0.466,1.041,0.466
					c0.585,0,1.032-0.092,1.343-0.274c0.31-0.183,0.667-0.475,1.069-0.877c0.548-0.512,1.215-1.032,2-1.562
					c0.786-0.53,1.855-0.832,3.206-0.905h0.22c0.986,0,1.918,0.219,2.795,0.658c0.877,0.438,1.68,1.077,2.412,1.918
					c0.511,0.584,0.913,1.169,1.206,1.754c0.292,0.585,0.511,1.077,0.658,1.48l-4.44,1.589
					C397.516-94.091,397.277-94.511,397.022-94.876z"/>
				<path id="XMLID_577_" style="fill:#F4A950;" d="M447.75-107.839c-1.883,1.882-4.084,3.371-6.605,4.467
					c-2.522,1.097-5.227,1.645-8.113,1.645c-2.85,0-5.536-0.548-8.056-1.645c-2.522-1.096-4.723-2.585-6.605-4.467
					c-1.883-1.883-3.371-4.093-4.468-6.633c-1.096-2.54-1.644-5.234-1.644-8.084c0-2.887,0.548-5.591,1.644-8.113
					c1.097-2.521,2.585-4.722,4.468-6.604c1.882-1.883,4.083-3.372,6.605-4.468c2.521-1.096,5.207-1.644,8.056-1.644
					c2.886,0,5.591,0.548,8.113,1.644c2.521,1.096,4.722,2.585,6.605,4.468c1.882,1.882,3.371,4.083,4.467,6.604
					c1.096,2.522,1.645,5.226,1.645,8.113c0,2.85-0.549,5.544-1.645,8.084C451.12-111.932,449.631-109.722,447.75-107.839z
					 M445.148-127.764c-0.694-1.644-1.632-3.096-2.817-4.357c-1.185-1.261-2.571-2.267-4.158-3.015
					c-1.586-0.749-3.292-1.124-5.114-1.124c-1.823,0-3.528,0.375-5.115,1.124c-1.586,0.748-2.971,1.754-4.156,3.015
					c-1.186,1.26-2.124,2.713-2.817,4.357c-0.693,1.645-1.039,3.38-1.039,5.208c0,1.789,0.347,3.516,1.039,5.179
					c0.693,1.663,1.631,3.115,2.817,4.358c1.185,1.242,2.57,2.238,4.156,2.987c1.586,0.748,3.292,1.124,5.115,1.124
					c1.822,0,3.527-0.376,5.114-1.124c1.586-0.749,2.972-1.746,4.158-2.987c1.185-1.242,2.123-2.695,2.817-4.358
					c0.693-1.663,1.039-3.39,1.039-5.179C446.187-124.384,445.84-126.119,445.148-127.764z"/>
			</g>
			<g id="Letras_META_2_">
				<path id="A_2_" style="fill:#F4A950;" d="M324.401-13.129l11.885,24.406h73.22l12.097-24.406h32.259l-79.374,155.14h-2.971
					l-79.374-155.14H324.401z M373.002,84.072l22.072-46.903h-44.356L373.002,84.072z"/>
				<polygon id="T_2_" style="fill:#F4A950;" points="220.196,115.906 237.811,115.906 237.811,-13.129 267.523,-13.129 
					267.523,115.906 284.926,115.906 284.926,99.56 311.88,99.56 311.88,115.906 311.88,132.748 311.88,142.223 193.243,142.223 
					193.243,132.748 193.243,115.906 193.243,99.56 220.196,99.56 				"/>
				<polygon id="E_2_" style="fill:#F4A950;" points="169.597,-2.543 169.597,13.612 169.597,30.645 142.644,30.645 142.644,13.612 
					84.918,13.612 84.918,50.115 118.106,50.115 118.106,77.068 84.918,77.068 84.918,115.906 142.644,115.906 142.644,99.56 
					169.597,99.56 169.597,115.906 169.597,132.748 169.597,142.223 55.206,142.223 55.206,-13.129 169.597,-13.129 				"/>
				<polygon id="M_2_" style="fill:#F4A950;" points="-96.664,65.395 -48.275,7.032 0.326,65.395 0.326,-13.129 30.037,-13.129 
					30.037,142.011 28.127,142.011 -48.275,52.45 -124.466,142.011 -126.376,142.011 -126.376,-13.129 -96.664,-13.129 				"/>
			</g>
		</g>
	</g>
</symbol>
<g id="Fundo_x2F_Background">
	<rect id="bg-preto" x="-66.235" y="-109.268" style="fill:#1D1B1B;" width="1088.059" height="540"/>
</g>
<g id="META_Empresa_J&#xFA;nior_de_Administra&#xE7;&#xE3;o">
	
		<use xlink:href="#META_Logotipo"  width="907.722" height="321.464" id="XMLID_411_" x="-453.861" y="-160.732" transform="matrix(1 0 0 -1 482.2438 160.7185)" style="overflow:visible;"/>
</g>
</svg>
